<svg width="195" height="40" fill="#ff5200" xmlns="http://www.w3.org/2000/svg" x="0" y="0" viewBox="0 0 1270.6 250.9" xml:space="preserve" class="Logo__svg"><path class="st0" d="M335 78c21 0 29 14 31 17h19c-1-8-12-35-50-35-30 0-54 24-54 55s24 56 54 56c38 0 49-29 50-36h-19c-2 4-10 18-31 18-20 0-34-17-34-38s14-37 34-37zM428 142V62h-20v106h20l61-80v80h20V62h-20zM526 80h43v88h20V80h43V62H526zM669 142V62h-20v106h20l61-80v80h20V62h-20zM790 121c-3 24-6 31-20 31h-3v18h6c23 0 31-15 34-48l4-42h44v88h20V62h-79l-6 59zM925 142V62h-20v106h20l61-80v80h20V62h-20zM1115 106h-59V62h-20v106h20v-45h59v45h20V62h-20zM1205 113l63-51h-28l-56 46V62h-19v106h19v-48l59 48h28zM173 201 58 223c-30 6-58-17-58-48V49C0 18 28-5 58 1l115 22c18 3 30 18 30 35v107c0 18-13 33-30 36"></path><path d="M63 156V71c0-4 4-7 8-6l85 13-1-19-81-13c-16-2-30 10-30 26v84c0 16 14 28 30 26l82-13v-19l-86 13c-3 0-7-3-7-7" style="fill:#fff"></path><path class="st0" d="M287 206h16c6 0 11 2 11 8 0 4-2 6-4 7 2 1 5 3 5 7 0 5-4 9-11 9h-17v-31zm6 5v8h10c3 0 5-2 5-4 0-3-1-4-5-4h-10zm0 13v8h11c3 0 5-2 5-5 0-2-2-3-5-3h-11zM337 210c-6 0-10 5-10 11s4 11 10 11 8-4 9-5h5c0 2-3 11-14 11-9 0-16-7-16-17 0-9 7-16 16-16 11 0 14 8 14 10h-5c-1 0-3-5-9-5M388 222h-25c0 6 4 10 10 10s9-3 9-4h6c-1 3-5 10-15 10-9 0-16-8-16-17s6-16 15-16c10 0 16 7 16 17m-25-5h19c-1-4-5-7-9-7-5 0-9 3-10 7M415 206h23v31h-5v-26h-13l-1 12c-1 10-4 14-10 14h-2v-5h1c4 0 5-2 6-9l1-17zM458 236l-14-30h7l10 23 11-23h6l-21 45h-5zM505 225l-9 1c-8 0-13-3-13-12v-8h6v7c0 5 1 8 7 8l9-1v-14h6v31h-6v-12zM527 206v26h14v-26h6v26h14v-26h6v31h-46v-31zM606 222h-25c0 6 4 10 10 10s9-3 9-4h6c0 3-4 10-15 10-9 0-16-8-16-17s7-16 16-16 15 7 15 17m-25-5h19a10 10 0 0 0-19 0M644 222h-26c0 6 4 10 10 10 7 0 9-3 9-4h6c0 3-4 10-15 10-9 0-16-8-16-17s7-16 16-16 16 7 16 17m-26-5h19c-1-4-5-7-9-7-5 0-9 3-10 7M661 246v-14h4c2-3 3-7 4-15l1-11h23v26h6v14h-5v-9h-28v9h-5zm26-35h-12l-1 7c-1 7-2 11-4 14h17v-21zM711 206h23v31h-6v-26h-13l-1 12c-1 10-3 14-10 14h-2v-5h1c4 0 5-2 6-9l2-17zM764 237v-11h-9l-7 11h-7l8-12c-5-1-7-5-7-10s3-9 11-9h17v31h-6zm0-17v-9h-10c-4 0-6 2-6 5s2 5 5 5h11zM804 211h-13v-5h31v5h-12v26h-6zM857 222h-26c1 6 5 10 11 10s9-3 9-4h6c-1 3-5 10-15 10s-17-8-17-17 7-16 16-16 16 7 16 17m-25-5h19c-2-4-5-7-10-7s-8 3-9 7M896 222c0 9-7 16-17 16-9 0-16-7-16-17l1-10c1-10 5-16 17-18l12-2v5l-12 2c-8 1-11 5-12 14 2-3 6-6 11-6 9 0 16 6 16 16m-6 0c0-6-4-10-11-10s-10 4-10 10 4 10 11 10c6 0 10-4 10-10M924 237v-11h-9l-8 11h-6l8-12c-5-1-7-5-7-10s3-9 11-9h17v31h-6zm0-17v-9h-11c-3 0-5 2-5 5s2 5 5 5h11z"></path></svg>